<?xml version="1.0" encoding="UTF-8"?><svg xmlns="http://www.w3.org/2000/svg" xmlns:xlink="http://www.w3.org/1999/xlink" viewBox="0 0 99 99"><defs><style>.e{fill:#1a1a1a;mix-blend-mode:multiply;opacity:.67;}.f{isolation:isolate;}.g{filter:url(#b);}.h{clip-path:url(#d);}.i{stroke:#fff;stroke-width:12px;}.i,.j{fill:none;stroke-miterlimit:10;}.j{stroke:#e5e5e5;stroke-width:5px;}.k{fill:#e3a81d;}</style><filter id="b" filterUnits="userSpaceOnUse"><feOffset dx="20" dy="20"/><feGaussianBlur result="c" stdDeviation="6"/><feFlood flood-color="#000" flood-opacity=".6"/><feComposite in2="c" operator="in"/><feComposite in="SourceGraphic"/></filter><clipPath id="d"><path class="j" d="M499.31,36.77h-172.63c-88.19,0-159.68,71.49-159.68,159.68v213.66c0,90,71.74,164.34,161.72,165.85,1.02,.02,2.05,.03,3.07,.03h162.38c91.02,0,164.81-73.79,164.81-164.81V196.45c0-88.19-71.49-159.68-159.68-159.68Z"/></clipPath></defs><g class="f"><g id="a"><g class="g"><g class="h"><rect class="e" x="-215.96" y="2.68" width="1108.74" height="586.6"/></g><path class="j" d="M499.31,36.77h-172.63c-88.19,0-159.68,71.49-159.68,159.68v213.66c0,90,71.74,164.34,161.72,165.85,1.02,.02,2.05,.03,3.07,.03h162.38c91.02,0,164.81-73.79,164.81-164.81V196.45c0-88.19-71.49-159.68-159.68-159.68Z"/></g><g><rect class="k" x="4.8" y="4.8" width="89.4" height="89.4" rx="44.7" ry="44.7"/><polyline class="i" points="39.92 29.73 58.88 48.64 39.96 67.6"/></g></g></g></svg>