<?xml version="1.0" encoding="UTF-8"?><svg xmlns="http://www.w3.org/2000/svg" xmlns:xlink="http://www.w3.org/1999/xlink" viewBox="0 0 99 99"><defs><style>.i{fill:#1a1a1a;mix-blend-mode:multiply;opacity:.67;}.j{isolation:isolate;}.k{filter:url(#b);}.l{clip-path:url(#e);}.m{clip-path:url(#d);}.n{fill:url(#h);}.o,.p,.q{fill:none;}.p{stroke:#fff;stroke-width:12px;}.p,.q{stroke-miterlimit:10;}.q{stroke:#e5e5e5;stroke-width:5px;}.r{clip-path:url(#f);}.s{fill:#e3a81d;}.t{clip-path:url(#g);}</style><filter id="b" filterUnits="userSpaceOnUse"><feOffset dx="20" dy="20"/><feGaussianBlur result="c" stdDeviation="6"/><feFlood flood-color="#000" flood-opacity=".6"/><feComposite in2="c" operator="in"/><feComposite in="SourceGraphic"/></filter><clipPath id="d"><path class="q" d="M607.31,36.77h-172.63c-88.19,0-159.68,71.49-159.68,159.68v213.66c0,90,71.74,164.34,161.72,165.85,1.02,.02,2.05,.03,3.07,.03h162.38c91.02,0,164.81-73.79,164.81-164.81V196.45c0-88.19-71.49-159.68-159.68-159.68Z"/></clipPath><clipPath id="e"><rect class="o" x="-1688" y="-326.5" width="1010" height="5400"/></clipPath><clipPath id="f"><rect class="o" x="-2177" y="-254.5" width="1984" height="1295"/></clipPath><clipPath id="g"><path class="o" d="M83.53,830.52c-152.01,9.06-270.83,22.87-341.13,30.96-207.2,23.86-242.07,37.06-520.47,68.88-163.65,18.7-262.16,26.46-344.17,31.22-128.19,7.44-224.03,8.34-313.38,9.07-211.3,1.71-386.16-5.55-507.21-12.63-86.02-5.02-72.69-5.73-140.54-9.24-42.88-2.22-122.26-5.77-228.96-6.37l-81.73-1132.33c57.99-3.36,97.59-1.75,125.34,.14,167.88,11.46,324.72,71.6,485.2,110.8,166.52,40.68,339.02,61.55,511.66,63.5,100.22,1.13,200.53-4.11,299.92-15.58,178.27-20.58,352.73-60.65,525.29-104.52,84.01-21.35,167.24-41.92,252.56-58.75,19.83-3.91,251.94-39.76,252.25-32.53l25.37,1057.37Z"/></clipPath><linearGradient id="h" x1="-2864.4" y1="-1393.63" x2="-763.15" y2="-279.55" gradientTransform="translate(-531.1 -1233.3) rotate(-89.88)" gradientUnits="userSpaceOnUse"><stop offset="0" stop-color="#1d1a39"/><stop offset="1" stop-color="#243886"/></linearGradient></defs><g class="j"><g id="a"><g class="k"><g class="m"><rect class="i" x="-107.96" y="2.68" width="1108.74" height="586.6"/></g><path class="q" d="M607.31,36.77h-172.63c-88.19,0-159.68,71.49-159.68,159.68v213.66c0,90,71.74,164.34,161.72,165.85,1.02,.02,2.05,.03,3.07,.03h162.38c91.02,0,164.81-73.79,164.81-164.81V196.45c0-88.19-71.49-159.68-159.68-159.68Z"/></g><g class="l"><g class="r"><g class="t"><polygon class="n" points="51.02 -379.66 30.75 1024.57 -2529.46 1040.66 -2509.2 -363.57 51.02 -379.66"/></g></g></g><g><rect class="s" x="4.8" y="4.8" width="89.4" height="89.4" rx="44.7" ry="44.7" transform="translate(99 99) rotate(-180)"/><polyline class="p" points="59.08 69.27 40.12 50.36 59.04 31.4"/></g></g></g></svg>